<svg id="Capa_1" enable-background="new 0 0 512.003 512.003" height="512" viewBox="0 0 512.003 512.003" width="512" xmlns="http://www.w3.org/2000/svg"><g><path d="m119.971 43.381c-.855-24.066-20.7-43.38-44.971-43.38h-75v30h75c15.365 0 14.959 16.376 15 16.476l59.98 301.899c-.209 8.804-4.519 17.128-11.642 22.372-35.109 25.85-16.296 81.253 26.662 81.253h17.58c-1.665 4.695-2.58 9.742-2.58 15 0 24.813 20.187 45 45 45s45-20.187 45-45c0-5.258-.915-10.305-2.58-15h95.161c-1.665 4.695-2.58 9.742-2.58 15 0 24.813 20.187 45 45 45s45-20.187 45-45c0-5.258-.915-10.305-2.58-15h32.579v-30h-315c-14.446 0-20.521-18.52-8.875-27.095 11.032-8.122 18.784-19.859 22.089-32.905h299.829l33.961-242h-376.81zm120.029 423.62c0 8.271-6.729 15-15 15s-15-6.729-15-15 6.729-15 15-15 15 6.729 15 15zm180 0c0 8.271-6.729 15-15 15s-15-6.729-15-15 6.729-15 15-15 15 6.729 15 15zm-242.687-135-5.96-30h284.815l-4.21 30zm152.687-60v-122h60v122zm-30 0h-60v-122h60zm160.378 0h-40.378v-122h57.499zm-250.378-122v122h-44.607l-24.238-122z"/></g></svg>